<?xml version="1.0" encoding="UTF-8" standalone="no"?>
<svg
   xmlns:dc="http://purl.org/dc/elements/1.1/"
   xmlns:cc="http://creativecommons.org/ns#"
   xmlns:rdf="http://www.w3.org/1999/02/22-rdf-syntax-ns#"
   xmlns:svg="http://www.w3.org/2000/svg"
   xmlns="http://www.w3.org/2000/svg"
   xmlns:sodipodi="http://sodipodi.sourceforge.net/DTD/sodipodi-0.dtd"
   xmlns:inkscape="http://www.inkscape.org/namespaces/inkscape"
   sodipodi:docname="thunderstorm, thunder, rain, weather.svg"
   inkscape:version="1.0 (4035a4fb49, 2020-05-01)"
   id="svg7292"
   version="1.1"
   viewBox="0 0 16.933333 16.933334"
   height="64"
   width="64">
  <defs
     id="defs7286" />
  <sodipodi:namedview
     inkscape:window-maximized="1"
     inkscape:window-y="-8"
     inkscape:window-x="-8"
     inkscape:window-height="706"
     inkscape:window-width="1366"
     units="px"
     showgrid="false"
     inkscape:document-rotation="0"
     inkscape:current-layer="g1098"
     inkscape:document-units="px"
     inkscape:cy="32.766702"
     inkscape:cx="29.030376"
     inkscape:zoom="7.6292775"
     inkscape:pageshadow="2"
     inkscape:pageopacity="0.0"
     borderopacity="1.0"
     bordercolor="#666666"
     pagecolor="#ffffff"
     id="base" />
  <metadata
     id="metadata7289">
    <rdf:RDF>
      <cc:Work
         rdf:about="">
        <dc:format>image/svg+xml</dc:format>
        <dc:type
           rdf:resource="http://purl.org/dc/dcmitype/StillImage" />
        <dc:title />
      </cc:Work>
    </rdf:RDF>
  </metadata>
  <g
     id="layer1"
     inkscape:groupmode="layer"
     inkscape:label="Layer 1">
    <g
       transform="matrix(0.99848764,0,0,0.99853661,-158.05751,-1.9473375)"
       id="g1098"
       style="stroke-width:1.00149">
      <g
         style="stroke-width:0.911181"
         transform="matrix(1.0998312,0,0,1.0983879,-475.28943,1.1236949)"
         id="g9919">
        <g
           style="stroke-width:0.911181"
           id="g9891"
           transform="translate(-3.3059948,-4.7046162)" />
        <g
           style="stroke-width:0.911181"
           id="g9929">
          <path
             d="m 585.58176,1.2346313 a 4.1849737,4.1460277 0 0 0 -0.0828,8.996e-4 4.1849737,4.1460277 0 0 0 -0.0831,0.00226 4.1849737,4.1460277 0 0 0 -0.0828,0.00405 4.1849737,4.1460277 0 0 0 -0.0831,0.00585 4.1849737,4.1460277 0 0 0 -0.0827,0.0072 4.1849737,4.1460277 0 0 0 -0.0823,0.00901 4.1849737,4.1460277 0 0 0 -0.0822,0.010349 4.1849737,4.1460277 0 0 0 -0.0823,0.012152 4.1849737,4.1460277 0 0 0 -0.0817,0.013946 4.1849737,4.1460277 0 0 0 -0.0817,0.015298 4.1849737,4.1460277 0 0 0 -0.0808,0.017096 4.1849737,4.1460277 0 0 0 -0.0808,0.018446 4.1849737,4.1460277 0 0 0 -0.0805,0.020245 4.1849737,4.1460277 0 0 0 -0.0799,0.021594 4.1849737,4.1460277 0 0 0 -0.0799,0.023395 4.1849737,4.1460277 0 0 0 -0.0792,0.024744 4.1849737,4.1460277 0 0 0 -0.0786,0.026543 4.1849737,4.1460277 0 0 0 -0.0777,0.02789 4.1849737,4.1460277 0 0 0 -0.0776,0.02969 4.1849737,4.1460277 0 0 0 -0.0768,0.030594 4.1849737,4.1460277 0 0 0 -0.0764,0.032842 4.1849737,4.1460277 0 0 0 -0.0754,0.033742 4.1849737,4.1460277 0 0 0 -0.075,0.035541 4.1849737,4.1460277 0 0 0 -0.0741,0.036888 4.1849737,4.1460277 0 0 0 -0.0735,0.038239 4.1849737,4.1460277 0 0 0 -0.0727,0.040036 4.1849737,4.1460277 0 0 0 -0.0718,0.040939 4.1849737,4.1460277 0 0 0 -0.0708,0.042738 4.1849737,4.1460277 0 0 0 -0.0699,0.044085 4.1849737,4.1460277 0 0 0 -0.069,0.045437 4.1849737,4.1460277 0 0 0 -0.0687,0.046336 4.1849737,4.1460277 0 0 0 -0.0671,0.048135 4.1849737,4.1460277 0 0 0 -0.0663,0.049486 4.1849737,4.1460277 0 0 0 -0.0654,0.050386 4.1849737,4.1460277 0 0 0 -0.0641,0.052184 4.1849737,4.1460277 0 0 0 -0.0635,0.053084 4.1849737,4.1460277 0 0 0 -0.0623,0.054434 4.1849737,4.1460277 0 0 0 -0.0609,0.055336 4.1849737,4.1460277 0 0 0 -0.06,0.057137 4.1849737,4.1460277 0 0 0 -0.059,0.058034 4.1849737,4.1460277 0 0 0 -0.0578,0.058933 4.1849737,4.1460277 0 0 0 -0.0562,0.060281 4.1849737,4.1460277 0 0 0 -0.055,0.061183 4.1849737,4.1460277 0 0 0 -0.0541,0.062531 4.1849737,4.1460277 0 0 0 -0.0527,0.063432 4.1849737,4.1460277 0 0 0 -0.0517,0.06433 4.1849737,4.1460277 0 0 0 -0.0499,0.065682 4.1849737,4.1460277 0 0 0 -0.049,0.06613 4.1849737,4.1460277 0 0 0 -0.0473,0.067481 4.1849737,4.1460277 0 0 0 -0.0463,0.06838 4.1849737,4.1460277 0 0 0 -0.0444,0.069279 4.1849737,4.1460277 0 0 0 -0.0437,0.06973 4.1849737,4.1460277 0 0 0 -0.0418,0.071079 4.1849737,4.1460277 0 0 0 -0.0405,0.071528 4.1849737,4.1460277 0 0 0 -0.039,0.072429 4.1849737,4.1460277 0 0 0 -0.0377,0.073328 4.1849737,4.1460277 0 0 0 -0.0363,0.074229 4.1849737,4.1460277 0 0 0 -0.0332,0.071528 3.0224816,2.9943539 0 0 0 -0.002,-4.761e-4 3.0224816,2.9943539 0 0 0 -0.0677,-0.020692 3.0224816,2.9943539 0 0 0 -0.0677,-0.018896 3.0224816,2.9943539 0 0 0 -0.0681,-0.017546 3.0224816,2.9943539 0 0 0 -0.069,-0.016197 3.0224816,2.9943539 0 0 0 -0.0687,-0.013943 3.0224816,2.9943539 0 0 0 -0.0696,-0.013046 3.0224816,2.9943539 0 0 0 -0.0696,-0.0108 3.0224816,2.9943539 0 0 0 -0.0699,-0.00946 3.0224816,2.9943539 0 0 0 -0.0699,-0.0081 3.0224816,2.9943539 0 0 0 -0.0704,-0.00631 3.0224816,2.9943539 0 0 0 -0.0705,-0.0045 3.0224816,2.9943539 0 0 0 -0.0704,-0.00315 3.0224816,2.9943539 0 0 0 -0.0705,-0.00138 3.0224816,2.9943539 0 0 0 -0.025,0 3.0224816,2.9943539 0 0 0 -0.0704,8.995e-4 3.0224816,2.9943539 0 0 0 -0.0705,0.00225 3.0224816,2.9943539 0 0 0 -0.0705,0.00405 3.0224816,2.9943539 0 0 0 -0.0704,0.00585 3.0224816,2.9943539 0 0 0 -0.0699,0.0072 3.0224816,2.9943539 0 0 0 -0.0699,0.00901 3.0224816,2.9943539 0 0 0 -0.0699,0.010347 3.0224816,2.9943539 0 0 0 -0.069,0.012154 3.0224816,2.9943539 0 0 0 -0.0696,0.013943 3.0224816,2.9943539 0 0 0 -0.0687,0.015295 3.0224816,2.9943539 0 0 0 -0.0687,0.017094 3.0224816,2.9943539 0 0 0 -0.0677,0.018443 3.0224816,2.9943539 0 0 0 -0.0677,0.019795 3.0224816,2.9943539 0 0 0 -0.0671,0.021594 3.0224816,2.9943539 0 0 0 -0.0663,0.023396 3.0224816,2.9943539 0 0 0 -0.0659,0.024743 3.0224816,2.9943539 0 0 0 -0.0654,0.026092 3.0224816,2.9943539 0 0 0 -0.065,0.027889 3.0224816,2.9943539 0 0 0 -0.0641,0.029241 3.0224816,2.9943539 0 0 0 -0.0632,0.03059 3.0224816,2.9943539 0 0 0 -0.0626,0.031944 3.0224816,2.9943539 0 0 0 -0.0617,0.033744 3.0224816,2.9943539 0 0 0 -0.0609,0.035093 3.0224816,2.9943539 0 0 0 -0.0604,0.036439 3.0224816,2.9943539 0 0 0 -0.0591,0.03734 3.0224816,2.9943539 0 0 0 -0.0586,0.039139 3.0224816,2.9943539 0 0 0 -0.0572,0.040488 3.0224816,2.9943539 0 0 0 -0.0568,0.041836 3.0224816,2.9943539 0 0 0 -0.0553,0.043187 3.0224816,2.9943539 0 0 0 -0.0545,0.044537 3.0224816,2.9943539 0 0 0 -0.0536,0.045437 3.0224816,2.9943539 0 0 0 -0.0523,0.046786 3.0224816,2.9943539 0 0 0 -0.0508,0.048138 3.0224816,2.9943539 0 0 0 -0.0505,0.049033 3.0224816,2.9943539 0 0 0 -0.0486,0.050387 3.0224816,2.9943539 0 0 0 -0.0477,0.05129 3.0224816,2.9943539 0 0 0 -0.0469,0.052622 3.0224816,2.9943539 0 0 0 -0.045,0.053525 3.0224816,2.9943539 0 0 0 -0.0441,0.054428 3.0224816,2.9943539 0 0 0 -0.0427,0.055771 3.0224816,2.9943539 0 0 0 -0.0413,0.056674 3.0224816,2.9943539 0 0 0 -0.04,0.057576 3.0224816,2.9943539 0 0 0 -0.0387,0.058468 3.0224816,2.9943539 0 0 0 -0.0373,0.058919 3.0224816,2.9943539 0 0 0 -0.0359,0.060285 3.0224816,2.9943539 0 0 0 -0.0341,0.061187 3.0224816,2.9943539 0 0 0 -0.0332,0.061628 3.0224816,2.9943539 0 0 0 -0.0314,0.062531 3.0224816,2.9943539 0 0 0 -0.03,0.062993 3.0224816,2.9943539 0 0 0 -0.0287,0.063874 3.0224816,2.9943539 0 0 0 -0.0272,0.064788 3.0224816,2.9943539 0 0 0 -0.0255,0.064798 3.0224816,2.9943539 0 0 0 -0.0236,0.065678 3.0224816,2.9943539 0 0 0 -0.0228,0.066142 3.0224816,2.9943539 0 0 0 -0.0205,0.067032 3.0224816,2.9943539 0 0 0 -0.0195,0.067043 3.0224816,2.9943539 0 0 0 -0.0177,0.067473 3.0224816,2.9943539 0 0 0 -0.0158,0.068386 3.0224816,2.9943539 0 0 0 -0.0147,0.068387 3.0224816,2.9943539 0 0 0 -0.0128,0.068365 3.0224816,2.9943539 0 0 0 -0.0112,0.068838 3.0224816,2.9943539 0 0 0 -0.01,0.069278 3.0224816,2.9943539 0 0 0 -0.009,0.0693 3.0224816,2.9943539 0 0 0 -0.007,0.069741 3.0224816,2.9943539 0 0 0 -0.006,0.069741 3.0224816,2.9943539 0 0 0 -0.002,0.069741 3.0224816,2.9943539 0 0 0 -0.002,0.069741 3.0224816,2.9943539 0 0 0 0,0.024737 3.0224816,2.9943539 0 0 0 0,0.069741 3.0224816,2.9943539 0 0 0 0.002,0.06974 3.0224816,2.9943539 0 0 0 0.003,0.069752 3.0224816,2.9943539 0 0 0 0.006,0.06973 3.0224816,2.9943539 0 0 0 0.008,0.069301 3.0224816,2.9943539 0 0 0 0.009,0.069278 3.0224816,2.9943539 0 0 0 0.0113,0.0693 3.0224816,2.9943539 0 0 0 0.0126,0.068376 3.0224816,2.9943539 0 0 0 0.0135,0.068838 3.0224816,2.9943539 0 0 0 0.0155,0.067946 3.0224816,2.9943539 0 0 0 0.0172,0.067935 3.0224816,2.9943539 0 0 0 0.0186,0.067054 3.0224816,2.9943539 0 0 0 0.0205,0.067044 3.0224816,2.9943539 0 0 0 0.0219,0.066571 3.0224816,2.9943539 0 0 0 0.0233,0.065678 3.0224816,2.9943539 0 0 0 0.025,0.065228 3.0224816,2.9943539 0 0 0 0.0267,0.064787 3.0224816,2.9943539 0 0 0 0.0278,0.064336 3.0224816,2.9943539 0 0 0 0.0295,0.063433 3.0224816,2.9943539 0 0 0 0.0309,0.06253 3.0224816,2.9943539 0 0 0 0.0327,0.062101 3.0224816,2.9943539 0 0 0 0.0335,0.061176 3.0224816,2.9943539 0 0 0 0.0355,0.060296 3.0224816,2.9943539 0 0 0 0.0368,0.059833 3.0224816,2.9943539 0 0 0 0.0381,0.058479 3.0224816,2.9943539 0 0 0 0.0396,0.058028 3.0224816,2.9943539 0 0 0 0.0408,0.057147 3.0224816,2.9943539 0 0 0 0.0423,0.055782 3.0224816,2.9943539 0 0 0 0.0432,0.05489 3.0224816,2.9943539 0 0 0 0.045,0.053976 3.0224816,2.9943539 0 0 0 0.0459,0.053084 3.0224816,2.9943539 0 0 0 0.0473,0.051741 3.0224816,2.9943539 0 0 0 0.0486,0.050827 3.0224816,2.9943539 0 0 0 0.0495,0.049484 3.0224816,2.9943539 0 0 0 0.0509,0.048141 3.0224816,2.9943539 0 0 0 0.0523,0.047251 3.0224816,2.9943539 0 0 0 0.0527,0.046337 3.0224816,2.9943539 0 0 0 0.0541,0.044553 3.0224816,2.9943539 0 0 0 0.0553,0.043639 3.0224816,2.9943539 0 0 0 0.0562,0.042296 3.0224816,2.9943539 0 0 0 0.0568,0.040942 3.0224816,2.9943539 0 0 0 0.0581,0.039599 3.0224816,2.9943539 0 0 0 0.059,0.038234 3.0224816,2.9943539 0 0 0 0.0599,0.036902 3.0224816,2.9943539 0 0 0 0.0609,0.035537 3.0224816,2.9943539 0 0 0 0.0614,0.033731 3.0224816,2.9943539 0 0 0 0.0623,0.032828 3.0224816,2.9943539 0 0 0 0.0632,0.031034 3.0224816,2.9943539 0 0 0 0.0641,0.029689 3.0224816,2.9943539 0 0 0 0.0645,0.028339 3.0224816,2.9943539 0 0 0 0.065,0.026988 3.0224816,2.9943539 0 0 0 0.0659,0.025189 3.0224816,2.9943539 0 0 0 0.0663,0.023379 3.0224816,2.9943539 0 0 0 0.0668,0.022489 3.0224816,2.9943539 0 0 0 0.0671,0.020689 3.0224816,2.9943539 0 0 0 0.0681,0.018889 3.0224816,2.9943539 0 0 0 0.0681,0.017539 3.0224816,2.9943539 0 0 0 0.0687,0.015729 3.0224816,2.9943539 0 0 0 0.069,0.014399 3.0224816,2.9943539 0 0 0 0.0696,0.012609 3.0224816,2.9943539 0 0 0 0.0696,0.011209 3.0224816,2.9943539 0 0 0 0.0699,0.0095 3.0224816,2.9943539 0 0 0 0.0699,0.008 3.0224816,2.9943539 0 0 0 0.0699,0.006 3.0224816,2.9943539 0 0 0 0.0704,0.0051 3.0224816,2.9943539 0 0 0 0.0705,0.0026 3.0224816,2.9943539 0 0 0 0.0708,0.0018 h 0.0246 4.72488 0.0209 a 4.1849737,4.1460277 0 0 0 0.0831,-9e-4 4.1849737,4.1460277 0 0 0 0.0828,-0.0023 4.1849737,4.1460277 0 0 0 0.0831,-0.0041 4.1849737,4.1460277 0 0 0 0.0826,-0.006 4.1849737,4.1460277 0 0 0 0.0828,-0.0072 4.1849737,4.1460277 0 0 0 0.0827,-0.0089 4.1849737,4.1460277 0 0 0 0.0823,-0.010789 4.1849737,4.1460277 0 0 0 0.0817,-0.012099 4.1849737,4.1460277 0 0 0 0.0817,-0.013499 4.1849737,4.1460277 0 0 0 0.0817,-0.015729 4.1849737,4.1460277 0 0 0 0.0814,-0.016649 4.1849737,4.1460277 0 0 0 0.0808,-0.018889 4.1849737,4.1460277 0 0 0 0.0805,-0.019779 4.1849737,4.1460277 0 0 0 0.0799,-0.022039 4.1849737,4.1460277 0 0 0 0.0796,-0.022939 4.1849737,4.1460277 0 0 0 0.0792,-0.025189 4.1849737,4.1460277 0 0 0 0.0786,-0.026079 4.1849737,4.1460277 0 0 0 0.0781,-0.028338 4.1849737,4.1460277 0 0 0 0.0772,-0.029238 4.1849737,4.1460277 0 0 0 0.0768,-0.031038 4.1849737,4.1460277 0 0 0 0.0763,-0.032388 4.1849737,4.1460277 0 0 0 0.076,-0.034182 4.1849737,4.1460277 0 0 0 0.0744,-0.035085 4.1849737,4.1460277 0 0 0 0.0744,-0.036902 4.1849737,4.1460277 0 0 0 0.0732,-0.038696 4.1849737,4.1460277 0 0 0 0.0727,-0.039588 4.1849737,4.1460277 0 0 0 0.0719,-0.041393 4.1849737,4.1460277 0 0 0 0.0708,-0.042296 4.1849737,4.1460277 0 0 0 0.0699,-0.044102 4.1849737,4.1460277 0 0 0 0.0696,-0.045445 4.1849737,4.1460277 0 0 0 0.0681,-0.046798 4.1849737,4.1460277 0 0 0 0.0671,-0.048141 4.1849737,4.1460277 0 0 0 0.0663,-0.049022 4.1849737,4.1460277 0 0 0 0.0654,-0.050838 4.1849737,4.1460277 0 0 0 0.0645,-0.051731 4.1849737,4.1460277 0 0 0 0.0632,-0.053084 4.1849737,4.1460277 0 0 0 0.0623,-0.05445 4.1849737,4.1460277 0 0 0 0.0609,-0.055782 4.1849737,4.1460277 0 0 0 0.0599,-0.056673 4.1849737,4.1460277 0 0 0 0.059,-0.058039 4.1849737,4.1460277 0 0 0 0.0578,-0.058931 4.1849737,4.1460277 0 0 0 0.0562,-0.060296 4.1849737,4.1460277 0 0 0 0.0554,-0.061187 4.1849737,4.1460277 0 0 0 0.0541,-0.062541 4.1849737,4.1460277 0 0 0 0.0526,-0.063444 4.1849737,4.1460277 0 0 0 0.0514,-0.064336 4.1849737,4.1460277 0 0 0 0.0499,-0.065678 4.1849737,4.1460277 0 0 0 0.0491,-0.066571 4.1849737,4.1460277 0 0 0 0.0472,-0.067054 4.1849737,4.1460277 0 0 0 0.0463,-0.068375 4.1849737,4.1460277 0 0 0 0.045,-0.069278 4.1849737,4.1460277 0 0 0 0.0432,-0.070192 4.1849737,4.1460277 0 0 0 0.0418,-0.070643 4.1849737,4.1460277 0 0 0 0.0409,-0.071987 4.1849737,4.1460277 0 0 0 0.0413,-0.072438 4.1849737,4.1460277 0 0 0 0.0377,-0.07333 4.1849737,4.1460277 0 0 0 0.0359,-0.073792 4.1849737,4.1460277 0 0 0 0.0351,-0.074695 4.1849737,4.1460277 0 0 0 0.0332,-0.075135 4.1849737,4.1460277 0 0 0 0.0314,-0.076027 4.1849737,4.1460277 0 0 0 0.0304,-0.076478 4.1849737,4.1460277 0 0 0 0.0287,-0.077381 4.1849737,4.1460277 0 0 0 0.0267,-0.077833 4.1849737,4.1460277 0 0 0 0.0255,-0.077843 4.1849737,4.1460277 0 0 0 0.0241,-0.078724 4.1849737,4.1460277 0 0 0 0.0224,-0.079187 4.1849737,4.1460277 0 0 0 0.0209,-0.079638 4.1849737,4.1460277 0 0 0 0.0191,-0.080067 4.1849737,4.1460277 0 0 0 0.0177,-0.08009 4.1849737,4.1460277 0 0 0 0.0158,-0.08097 4.1849737,4.1460277 0 0 0 0.0142,-0.08053 4.1849737,4.1460277 0 0 0 0.0128,-0.081422 4.1849737,4.1460277 0 0 0 0.0112,-0.081422 4.1849737,4.1460277 0 0 0 0.01,-0.081433 4.1849737,4.1460277 0 0 0 0.008,-0.081862 4.1849737,4.1460277 0 0 0 0.007,-0.081862 4.1849737,4.1460277 0 0 0 0.003,-0.082325 4.1849737,4.1460277 0 0 0 0.002,-0.081862 4.1849737,4.1460277 0 0 0 0.002,-0.082335 4.1849737,4.1460277 0 0 0 0,-0.020687 4.1849737,4.1460277 0 0 0 0,-0.082325 4.1849737,4.1460277 0 0 0 -0.002,-0.081862 4.1849737,4.1460277 0 0 0 -0.003,-0.082335 4.1849737,4.1460277 0 0 0 -0.007,-0.081862 4.1849737,4.1460277 0 0 0 -0.008,-0.081862 4.1849737,4.1460277 0 0 0 -0.009,-0.081862 4.1849737,4.1460277 0 0 0 -0.01,-0.081411 4.1849737,4.1460277 0 0 0 -0.0126,-0.08097 4.1849737,4.1460277 0 0 0 -0.0142,-0.080981 4.1849737,4.1460277 0 0 0 -0.0153,-0.08097 4.1849737,4.1460277 0 0 0 -0.0172,-0.08053 4.1849737,4.1460277 0 0 0 -0.0186,-0.080077 4.1849737,4.1460277 0 0 0 -0.0205,-0.079627 4.1849737,4.1460277 0 0 0 -0.0218,-0.079177 4.1849737,4.1460277 0 0 0 -0.0236,-0.078726 4.1849737,4.1460277 0 0 0 -0.025,-0.078283 4.1849737,4.1460277 0 0 0 -0.0268,-0.077828 4.1849737,4.1460277 0 0 0 -0.0281,-0.077378 4.1849737,4.1460277 0 0 0 -0.03,-0.076468 4.1849737,4.1460277 0 0 0 -0.0309,-0.076482 4.1849737,4.1460277 0 0 0 -0.0332,-0.075128 4.1849737,4.1460277 0 0 0 -0.0341,-0.075127 4.1849737,4.1460277 0 0 0 -0.0359,-0.073779 4.1849737,4.1460277 0 0 0 -0.0372,-0.073773 4.1849737,4.1460277 0 0 0 -0.0387,-0.07243 4.1849737,4.1460277 0 0 0 -0.0405,-0.071979 4.1849737,4.1460277 0 0 0 -0.0413,-0.07108 4.1849737,4.1460277 0 0 0 -0.0432,-0.070181 4.1849737,4.1460277 0 0 0 -0.0445,-0.069731 4.1849737,4.1460277 0 0 0 -0.0459,-0.06838 4.1849737,4.1460277 0 0 0 -0.0469,-0.06748 4.1849737,4.1460277 0 0 0 -0.0486,-0.066579 4.1849737,4.1460277 0 0 0 -0.0499,-0.065681 4.1849737,4.1460277 0 0 0 -0.0509,-0.06478 4.1849737,4.1460277 0 0 0 -0.0527,-0.063879 4.1849737,4.1460277 0 0 0 -0.0536,-0.06253 4.1849737,4.1460277 0 0 0 -0.055,-0.061632 4.1849737,4.1460277 0 0 0 -0.0559,-0.060281 4.1849737,4.1460277 0 0 0 -0.0578,-0.059382 4.1849737,4.1460277 0 0 0 -0.0587,-0.058468 4.1849737,4.1460277 0 0 0 -0.0595,-0.057136 4.1849737,4.1460277 0 0 0 -0.0609,-0.055787 4.1849737,4.1460277 0 0 0 -0.0617,-0.054884 4.1849737,4.1460277 0 0 0 -0.0632,-0.053534 4.1849737,4.1460277 0 0 0 -0.0641,-0.052184 4.1849737,4.1460277 0 0 0 -0.0651,-0.050834 4.1849737,4.1460277 0 0 0 -0.0663,-0.049484 4.1849737,4.1460277 0 0 0 -0.0668,-0.048585 4.1849737,4.1460277 0 0 0 -0.0681,-0.047235 4.1849737,4.1460277 0 0 0 -0.069,-0.045436 4.1849737,4.1460277 0 0 0 -0.0699,-0.044537 4.1849737,4.1460277 0 0 0 -0.0704,-0.042738 4.1849737,4.1460277 0 0 0 -0.0719,-0.041836 4.1849737,4.1460277 0 0 0 -0.0723,-0.040037 4.1849737,4.1460277 0 0 0 -0.0732,-0.038687 4.1849737,4.1460277 0 0 0 -0.074,-0.03734 4.1849737,4.1460277 0 0 0 -0.075,-0.035541 4.1849737,4.1460277 0 0 0 -0.0753,-0.034644 4.1849737,4.1460277 0 0 0 -0.076,-0.032844 4.1849737,4.1460277 0 0 0 -0.0768,-0.031041 4.1849737,4.1460277 0 0 0 -0.0772,-0.030141 4.1849737,4.1460277 0 0 0 -0.0777,-0.028342 4.1849737,4.1460277 0 0 0 -0.0786,-0.026545 4.1849737,4.1460277 0 0 0 -0.0792,-0.025192 4.1849737,4.1460277 0 0 0 -0.0796,-0.023846 4.1849737,4.1460277 0 0 0 -0.08,-0.022044 4.1849737,4.1460277 0 0 0 -0.0805,-0.020694 4.1849737,4.1460277 0 0 0 -0.0805,-0.018897 4.1849737,4.1460277 0 0 0 -0.0814,-0.017542 4.1849737,4.1460277 0 0 0 -0.0814,-0.015744 4.1849737,4.1460277 0 0 0 -0.0817,-0.013946 4.1849737,4.1460277 0 0 0 -0.0822,-0.012606 4.1849737,4.1460277 0 0 0 -0.0823,-0.011244 4.1849737,4.1460277 0 0 0 -0.0823,-0.00901 4.1849737,4.1460277 0 0 0 -0.0826,-0.00765 4.1849737,4.1460277 0 0 0 -0.0828,-0.00631 4.1849737,4.1460277 0 0 0 -0.0827,-0.0045 4.1849737,4.1460277 0 0 0 -0.0831,-0.0027 4.1849737,4.1460277 0 0 0 -0.0831,-0.00136 4.1849737,4.1460277 0 0 0 -0.0209,0 z"
             style="fill:none;stroke:#000000;stroke-width:0.964336;stroke-linecap:round;stroke-linejoin:round;stroke-miterlimit:4;stroke-dasharray:none;stroke-opacity:1;paint-order:stroke fill markers;stop-color:#000000"
             id="path4738-0-8-7-1" />
          <g
             id="g9901"
             transform="matrix(0.99994651,0,0,0.99994726,-7.3754914,-0.93846046)"
             style="stroke-width:0.911226">
            <path
               style="fill:none;stroke:#000000;stroke-width:0.964336;stroke-linecap:round;stroke-linejoin:round;stroke-miterlimit:4;stroke-dasharray:none;stroke-opacity:1"
               d="m 586.96107,16.227821 -1.20713,2.087755"
               id="path10815-7-1-9"
               sodipodi:nodetypes="cc"
               transform="matrix(1.0000535,0,0,1.0000527,4.0688234,-3.903066)" />
            <path
               sodipodi:nodetypes="cc"
               id="path9845-2"
               d="m 587.59352,18.462987 -1.20713,2.087756"
               style="fill:none;stroke:#000000;stroke-width:0.964336;stroke-linecap:round;stroke-linejoin:round;stroke-miterlimit:4;stroke-dasharray:none;stroke-opacity:1"
               transform="matrix(1.0000535,0,0,1.0000527,4.0688234,-3.903066)" />
            <path
               id="path9847-2"
               d="m 585.68095,18.441767 1.91257,0.02122"
               style="fill:none;stroke:#000000;stroke-width:0.964336;stroke-linecap:round;stroke-linejoin:round;stroke-miterlimit:4;stroke-dasharray:none;stroke-opacity:1"
               transform="matrix(1.0000535,0,0,1.0000527,4.0688234,-3.903066)" />
            <path
               style="fill:none;stroke:#000000;stroke-width:0.964391;stroke-linecap:round;stroke-linejoin:round;stroke-miterlimit:4;stroke-dasharray:none;stroke-opacity:1"
               d="m 588.85919,12.325615 -1.2072,2.087866"
               id="path10815-7-1"
               sodipodi:nodetypes="cc" />
            <path
               id="path10819-5-0"
               d="m 594.73384,12.325618 -1.20715,2.087867"
               style="fill:none;stroke:#000000;stroke-width:0.964391;stroke-linecap:round;stroke-linejoin:round;stroke-miterlimit:4;stroke-dasharray:none;stroke-opacity:1"
               sodipodi:nodetypes="cc" />
          </g>
        </g>
      </g>
    </g>
  </g>
</svg>
